<svg height='200' width='200'  fill="#000000" xmlns="http://www.w3.org/2000/svg" xmlns:xlink="http://www.w3.org/1999/xlink" version="1.1" x="0px" y="0px" viewBox="0 0 100 100" enable-background="new 0 0 100 100" xml:space="preserve"><path d="M54.6,88C83,85.9,99.7,63,93.8,42.4c-2,1.9-4,3.7-5.8,5.3c-9,7.9-21.1,12.4-21.1,12.4s-2.1-0.1-4-2.3c-1.9-2.2-1.7-4-1.7-4  s8.7-12.5,17.8-21.1c1.8-1.7,3.8-3.4,5.9-5C68.5,10.2,41.2,10.6,40.1,13c-2,4.5,6.4,5.7,10.9,8.5c4.6,2.9,4.3,6.9-8.3,4.8  C-16.2,16.4-1.4,92.3,54.6,88z M58.2,54.3c0,0-1,2.1,2.3,5.9c2.5,2.9,5.4,3.2,5.4,3.2s-3,9.8-15.1,11.1c-12,1.3-19.2-7.4-19.2-7.4  s2.7,1.3,7.9,0.4c5.8-1,6.5-6.3,9.7-10.5C52.5,52.8,58.2,54.3,58.2,54.3z M37.4,33.4c5.7-0.9,11,1.5,11.8,5.3c0.9,3.8-3,7.6-8.7,8.5  c-5.7,0.9-11-1.5-11.8-5.3C27.8,38.1,31.7,34.3,37.4,33.4z"></path></svg>