<svg height='200' width='200'  fill="#000000" xmlns="http://www.w3.org/2000/svg" xmlns:xlink="http://www.w3.org/1999/xlink" version="1.1" x="0px" y="0px" viewBox="0 0 100 100" enable-background="new 0 0 100 100" xml:space="preserve"><g><path d="M51.292,16.271c2.735,0,4.722-2.139,4.722-5.085c0-2.947-1.986-5.087-4.722-5.087c-2.736,0-4.722,2.14-4.722,5.087   C46.57,14.131,48.556,16.271,51.292,16.271z"></path><path d="M45.225,21.855v31.814c0,0.993,0.804,1.796,1.795,1.796c0.991,0,1.795-0.803,1.795-1.796V37.514   c0-1.237,1.006-2.244,2.244-2.244s2.244,1.007,2.244,2.244v16.155c0,0.993,0.804,1.796,1.795,1.796s1.796-0.803,1.796-1.796V22.063   c5.31-2.225,8.695-7.685,8.695-14.768c0-0.991-0.804-1.795-1.795-1.795c-0.99,0-1.795,0.804-1.795,1.795   c0,7.337-4.304,12.267-10.706,12.267c-6.404,0-10.708-4.93-10.708-12.267c0-0.991-0.804-1.795-1.794-1.795   c-0.992,0-1.796,0.804-1.796,1.795C36.995,14.168,40.185,19.512,45.225,21.855z"></path><path d="M76.424,34.233c2.736,0,4.721-2.139,4.721-5.086c0-2.948-1.984-5.086-4.721-5.086c-2.735,0-4.722,2.139-4.722,5.086   C71.702,32.094,73.688,34.233,76.424,34.233z"></path><path d="M72.151,73.428c0.992,0,1.795-0.805,1.795-1.797V55.475c0-1.236,1.007-2.242,2.244-2.242c1.238,0,2.244,1.006,2.244,2.242   v16.156c0,0.992,0.804,1.797,1.795,1.797c0.992,0,1.795-0.805,1.795-1.797V39.32c0-0.992-0.803-1.795-1.795-1.795l-8.078,0   c-0.476,0-0.933,0.188-1.269,0.525c-0.337,0.336-0.526,0.793-0.526,1.269v32.312C70.356,72.623,71.16,73.428,72.151,73.428z"></path><path d="M84.122,78.819H62.46V62.652c0-0.992-0.804-1.796-1.795-1.796h-18.74c-0.991,0-1.795,0.804-1.795,1.796v10.179H17.235   c-0.992,0-1.795,0.804-1.795,1.796v17.078c0,0.991,0.804,1.795,1.795,1.795h66.887c0.991,0,1.795-0.804,1.795-1.795V80.614   C85.917,79.621,85.113,78.819,84.122,78.819z"></path><path d="M28.524,28.246c2.736,0,4.722-2.139,4.722-5.086c0-2.947-1.986-5.086-4.722-5.086c-2.735,0-4.721,2.14-4.721,5.086   C23.803,26.106,25.789,28.246,28.524,28.246z"></path><path d="M22.457,33.83v31.815c0,0.992,0.804,1.794,1.795,1.794c0.992,0,1.795-0.802,1.795-1.794V49.488   c0-1.237,1.007-2.244,2.244-2.244s2.244,1.007,2.244,2.244v16.157c0,0.992,0.804,1.794,1.795,1.794   c0.992,0,1.795-0.802,1.795-1.794V33.333c0-0.992-0.804-1.795-1.795-1.795l-3.803-0.001c0,0-0.001,0-0.003,0   c-6.403,0-10.706-4.929-10.706-12.267c0-0.992-0.804-1.796-1.796-1.796c-0.991,0-1.795,0.804-1.795,1.796   C14.228,26.144,17.417,31.487,22.457,33.83z"></path></g></svg>