<svg height='200' width='200'  fill="#000000" xmlns="http://www.w3.org/2000/svg" xmlns:xlink="http://www.w3.org/1999/xlink" version="1.1" x="0px" y="0px" viewBox="0 0 100 100" enable-background="new 0 0 100 100" xml:space="preserve"><g><path d="M87.776,47.753c-2.956-2.927-6.866-4.536-11.019-4.536c-0.027,0-0.054,0-0.081,0c-0.279,0.001-0.552,0.029-0.828,0.044   L74.83,34.72c1.034-0.64,2.424-1.747,3.332-3.685c1.218-2.599,1.278-6.41-2.21-9.312c-1.848-1.538-5.352-1.934-8.014,0.064   c-1.577,1.183-2.078,2.852-2.133,4.162l-1.141,0.492c-0.78,0.336-1.138,1.24-0.803,2.019c0.336,0.779,1.241,1.138,2.018,0.803   l2.135-0.92c0.674-0.29,1.049-1.018,0.894-1.736c-0.003-0.015-0.285-1.493,0.875-2.363c1.507-1.132,3.411-0.821,4.206-0.16   c2.623,2.182,1.847,4.676,1.392,5.647c-0.693,1.479-1.793,2.191-2.586,2.621l-29.286,0.362l-0.026-5.256l7.633-0.038   c0.848-0.004,1.532-0.695,1.528-1.544c-0.004-0.845-0.691-1.528-1.536-1.528c-0.002,0-0.005,0-0.008,0l-9.168,0.046   c-0.848,0.004-1.532,0.695-1.528,1.543l0.038,7.676L28.574,44.837c-1.94-0.862-4.08-1.351-6.334-1.351c-0.026,0-0.053,0-0.078,0   c-4.182,0.021-8.108,1.671-11.054,4.646c-2.946,2.975-4.557,6.916-4.536,11.099c0.043,8.613,7.063,15.591,15.667,15.591   c0.026,0,0.052,0,0.078-0.001c7.044-0.035,12.99-4.739,14.924-11.157c3.626-0.018,6.713-0.033,7.51-0.036c0.002,0,0.13,0,0.133,0   l0.183-0.001c0.061,0,0.122-0.003,0.181-0.011c4.453-0.242,7.907-3.898,7.884-8.374c-0.001-0.186-0.017-0.369-0.03-0.552   l18.913-17.62l0.795,6.664c-2.698,0.698-5.175,2.095-7.189,4.128c-2.945,2.975-4.556,6.916-4.536,11.099   c0.021,4.182,1.67,8.108,4.646,11.054c2.956,2.926,6.865,4.536,11.018,4.536c0.027,0,0.054,0,0.082-0.001   c4.182-0.021,8.108-1.67,11.053-4.645c2.946-2.975,4.557-6.916,4.536-11.099C92.4,54.625,90.75,50.699,87.776,47.753z    M46.087,57.03l-0.784-6.969c1.182,0.12,2.326,0.615,3.195,1.475c0.593,0.587,1.008,1.299,1.267,2.067L46.087,57.03z M40.8,37.502   l1.113,9.9l-7.553,1.842c-0.872-1.064-1.887-2.003-3.006-2.807L40.8,37.502z M34.835,59.091c0.003,0.513-0.035,1.016-0.092,1.513   c-3.873,0.02-7.902,0.04-10.208,0.053l-1.908,0.01c-0.004,0-0.009,0-0.014,0c-1.503,0-2.73-1.22-2.737-2.725   c-0.001-0.299,0.062-0.585,0.153-0.861c0.104-0.059,0.203-0.128,0.294-0.214l1.483-1.403l11.245-2.742   C34.166,54.591,34.824,56.763,34.835,59.091z M26.311,51.205l2.766-2.616c0.671,0.436,1.297,0.933,1.872,1.485L26.311,51.205z    M22.302,71.75c-0.021,0-0.042,0-0.063,0c-6.916-0.001-12.561-5.61-12.595-12.534c-0.017-3.362,1.278-6.53,3.647-8.922   s5.525-3.719,8.886-3.735c0.021,0,0.042,0,0.063,0c1.349,0,2.646,0.219,3.866,0.614l-5.818,5.502l-0.116,0.028   c-0.135,0.032-0.264,0.084-0.385,0.151c-1.85,1.032-2.993,2.988-2.982,5.105c0.016,3.194,2.619,5.78,5.809,5.78   c0.01,0,0.02,0,0.029,0l1.909-0.01c2.152-0.011,5.805-0.03,9.43-0.048C32.166,68.371,27.628,71.722,22.302,71.75z M36.146,51.969   l6.113-1.49l1.116,9.926c0.001,0.007,0.005,0.013,0.006,0.02c0.006,0.047,0.016,0.092,0.026,0.138   c-1.297,0.006-3.302,0.015-5.569,0.027c0.046-0.499,0.072-1.003,0.069-1.514C37.894,56.513,37.252,54.101,36.146,51.969z    M47.845,59.589l0.923-0.86C48.492,59.048,48.191,59.344,47.845,59.589z M50.659,49.354c-1.536-1.52-3.556-2.367-5.706-2.408   l-1.255-11.161l25.532-0.316L52.161,51.371C51.769,50.636,51.268,49.956,50.659,49.354z M85.702,67.744   c-2.368,2.392-5.525,3.719-8.886,3.735c-3.35,0.011-6.53-1.279-8.923-3.647c-2.392-2.368-3.719-5.525-3.735-8.886   c-0.016-3.362,1.279-6.53,3.648-8.922c1.517-1.533,3.361-2.622,5.372-3.215l1.462,12.26c0.092,0.781,0.756,1.355,1.523,1.355   c0.061,0,0.122-0.004,0.184-0.012c0.842-0.1,1.444-0.864,1.343-1.707l-1.477-12.391c0.16-0.007,0.319-0.025,0.48-0.026   c0.022,0,0.042,0,0.064,0c3.338,0,6.482,1.294,8.858,3.647c2.392,2.369,3.719,5.525,3.735,8.887   C89.366,62.184,88.071,65.352,85.702,67.744z"></path></g></svg>