<svg height='200' width='200'  fill="#ffffff" xmlns="http://www.w3.org/2000/svg" xmlns:xlink="http://www.w3.org/1999/xlink" version="1.1" x="0px" y="0px" viewBox="0 0 100 100" enable-background="new 0 0 100 100" xml:space="preserve"><g><path d="M91.808,58.355c-0.053,0.04-0.098,0.089-0.157,0.123c-0.302,0.173-3.656,2.035-10.604,4.031"></path><path d="M76.424,42.071c-0.766-0.394-1.707-0.097-2.103,0.669c-0.981,1.895-2.025,5.788-2.068,5.953   c-0.223,0.832,0.272,1.687,1.105,1.91c0.135,0.036,0.27,0.053,0.403,0.053c0.69,0,1.321-0.46,1.506-1.159   c0.276-1.032,1.141-4.001,1.825-5.324C77.488,43.408,77.188,42.467,76.424,42.071z"></path><path d="M68.466,45.975c-4.684-1.676-8.295-2.47-10.768-2.375c-3.269,0.133-6.828,1.578-10.27,2.975   c-3.952,1.605-8.036,3.263-11.444,2.854c-0.856-0.1-1.632,0.507-1.735,1.363c-0.103,0.855,0.507,1.632,1.363,1.735   c0.487,0.058,0.977,0.085,1.471,0.085c3.766,0,7.7-1.596,11.519-3.146c3.342-1.357,6.498-2.638,9.224-2.749   c2.012-0.067,5.405,0.699,9.588,2.196c0.815,0.29,1.705-0.132,1.995-0.944C69.7,47.158,69.278,46.266,68.466,45.975z"></path><path d="M92.429,56.977c-0.049-0.523-1.232-12.882-2.537-18.358c-1.208-5.064-5.189-14.323-5.357-14.715   c-0.172-0.401-0.506-0.712-0.919-0.855c-1.164-0.41-3.689-0.381-5.726,2.316c-1.318,1.743-1.216,3.812-1.05,4.849   c-0.624,1.137-2.708,4.259-6.931,4.638c-5.617,0.504-8.769-4.015-8.876-4.169l-3.408-5.362c-0.234-0.367-0.609-0.62-1.037-0.698   c-0.427-0.077-0.868,0.026-1.216,0.286c-0.045,0.034-2.125,1.581-5.488,3.791l-1.07-1.378c-0.528-0.68-1.507-0.805-2.189-0.275   c-0.681,0.529-0.804,1.508-0.275,2.189l0.901,1.16c-0.587,0.369-1.202,0.75-1.836,1.137l-1.284-1.653   c-0.529-0.681-1.509-0.805-2.189-0.275c-0.681,0.529-0.804,1.508-0.275,2.189l1.047,1.348c-0.685,0.4-1.387,0.802-2.108,1.206   l-1.038-1.336c-0.529-0.681-1.508-0.805-2.189-0.275c-0.681,0.529-0.804,1.508-0.275,2.189l0.731,0.941   c-0.711,0.378-1.433,0.754-2.166,1.125l-1.249-1.608c-0.529-0.681-1.508-0.804-2.189-0.275c-0.681,0.529-0.804,1.508-0.275,2.189   l0.841,1.083c-0.76,0.341-1.52,0.648-2.28,0.916l-1.198-1.542c-0.529-0.68-1.508-0.805-2.189-0.275   c-0.681,0.529-0.804,1.508-0.275,2.189l0.464,0.597c-1.534,0.4-3.057,0.725-4.558,1.04c-5.552,1.167-10.796,2.269-13.608,7.309   c-4.734,8.486,0.711,15.088,0.945,15.365c0.185,0.218,0.426,0.382,0.696,0.472c0.347,0.117,8.676,2.852,23.433,3.105   c1.403,0.024,2.773,0.035,4.119,0.035c20.325,0,34.203-2.642,42.7-5.083c6.948-1.996,10.302-3.859,10.604-4.031   c0.059-0.034,0.104-0.083,0.157-0.123C92.235,58.031,92.48,57.519,92.429,56.977z M34.281,64.438   c-7.41-0.127-13.167-0.913-17.009-1.641c-2.566-0.486-4.286-0.947-5.041-1.168c-0.332-0.475-0.912-1.416-1.337-2.706   c1.02,0.176,2.457,0.379,4.543,0.64c0.971,0.122,2.077,0.256,3.344,0.407c4.917,0.584,12.269,1.329,19.373,1.561   c0.94,0.031,1.888,0.046,2.844,0.046c11.828,0,24.653-2.267,33.623-4.256c0.84-0.187,1.371-1.02,1.185-1.861   c-0.187-0.842-1.017-1.375-1.861-1.186c-9.519,2.11-23.443,4.525-35.689,4.139c-8.552-0.281-18.021-1.352-23.54-2.103   c-2.03-0.277-3.541-0.511-4.253-0.646c-0.029-0.015-0.062-0.022-0.092-0.035c0.004-1.629,0.39-3.488,1.508-5.492   c1.658-2.971,4.569-4.149,8.268-5.051c0.012,0.028,0.01,0.059,0.024,0.086c0.161,0.316,0.633,1.19,1.287,2.152   c0.856,1.259,2.031,2.671,3.31,3.208c2.717,1.141,4.599,1.313,4.678,1.321c0.046,0.004,0.091,0.005,0.136,0.005   c0.798,0,1.474-0.609,1.548-1.419c0.078-0.855-0.553-1.613-1.408-1.696c-0.015-0.001-1.52-0.154-3.747-1.089   c-0.363-0.152-0.862-0.661-1.374-1.316c-0.453-0.579-0.916-1.27-1.308-1.955c0.038-0.008,0.073-0.016,0.111-0.024   c1.885-0.396,3.908-0.827,5.985-1.43l1.151,1.482c0.047,0.06,0.103,0.107,0.156,0.158c0.297,0.287,0.683,0.445,1.077,0.445   c0.334,0,0.671-0.107,0.956-0.328c0.353-0.274,0.548-0.67,0.588-1.083c0.037-0.382-0.059-0.779-0.313-1.106l-0.483-0.622   c0.748-0.289,1.497-0.6,2.246-0.959l0.873,1.124c0.094,0.121,0.205,0.218,0.323,0.303c0.269,0.194,0.587,0.3,0.91,0.3   c0.334,0,0.671-0.107,0.956-0.328c0.398-0.309,0.579-0.771,0.578-1.238c-0.001-0.333-0.083-0.668-0.303-0.951l-0.488-0.629   c0.731-0.375,1.453-0.752,2.161-1.132l1.012,1.304c0.026,0.034,0.059,0.058,0.087,0.089c0.304,0.333,0.72,0.514,1.146,0.514   c0.334,0,0.671-0.107,0.956-0.328c0.511-0.396,0.708-1.047,0.551-1.634c-0.052-0.196-0.144-0.385-0.276-0.555l-0.711-0.916   c0.718-0.406,1.422-0.811,2.104-1.211l0.705,0.908c0.155,0.199,0.349,0.35,0.562,0.452c0.21,0.1,0.44,0.151,0.671,0.151   c0.334,0,0.671-0.107,0.956-0.328c0.348-0.27,0.546-0.659,0.589-1.065c0.042-0.388-0.056-0.792-0.314-1.124l-0.476-0.612   c0.633-0.388,1.248-0.771,1.833-1.14l0.861,1.108c0.138,0.178,0.31,0.311,0.496,0.411c0.229,0.123,0.481,0.192,0.738,0.192   c0.334,0,0.671-0.107,0.956-0.328c0.228-0.177,0.368-0.411,0.467-0.661c0.198-0.497,0.16-1.075-0.192-1.528l-0.694-0.893   c1.74-1.147,3.138-2.115,4.075-2.779l2.541,3.998c0.058,0.086,0.57,0.822,1.495,1.731c-0.019,0.035-0.052,0.057-0.069,0.093   c-0.591,1.264-1.767,4.354,0.066,5.743c0.042,0.032,0.084,0.055,0.125,0.086c3.142,2.333,6.373,2.998,9.019,2.998   c3.291,0,5.676-1.018,5.853-1.096c0.786-0.346,1.142-1.262,0.799-2.05c-0.342-0.789-1.263-1.148-2.05-0.81   c-0.14,0.06-2.041,0.853-4.657,0.836c-2.048-0.013-4.534-0.523-6.959-2.271c0.015-0.339,0.173-0.952,0.395-1.545   c1.927,1.192,4.522,2.142,7.751,1.854c6.957-0.624,9.613-6.662,9.723-6.919c0.136-0.32,0.159-0.687,0.071-1.023   c-0.005-0.017-0.43-1.677,0.397-2.772c0.638-0.845,1.245-1.138,1.66-1.231c0.387,0.922,1.035,2.49,1.743,4.294   c0.277,0.707,0.563,1.451,0.846,2.207c-0.068,0.031-0.142,0.039-0.208,0.081c-0.13,0.084-3.229,2.096-6.135,4.989   c-0.61,0.608-0.613,1.596-0.004,2.207c0.305,0.306,0.704,0.459,1.105,0.459c0.398,0,0.797-0.151,1.102-0.454   c2.088-2.08,4.321-3.686,5.211-4.299c0.48,1.407,0.894,2.744,1.156,3.843c0.599,2.514,1.185,6.682,1.635,10.368   c-1.395,0.565-4.481,1.727-8.244,2.599c-0.839,0.194-1.362,1.033-1.168,1.872c0.167,0.721,0.809,1.209,1.519,1.209   c0.117,0,0.235-0.013,0.354-0.041c3.375-0.782,6.212-1.774,7.913-2.43c0.152,1.362,0.272,2.517,0.351,3.293   C85.301,58.061,68.236,65.006,34.281,64.438z"></path></g></svg>